<svg width="29" height="30" viewBox="0 0 29 30" fill="none" xmlns="http://www.w3.org/2000/svg">
<path d="M1.18961 18.4526C1.18961 18.4526 1.16317 18.2124 1.18961 17.8302C1.41434 14.502 4.92416 12.4296 8.02858 13.718C9.39902 14.288 11.1418 15.3581 13.0961 17.3563C13.0961 17.3563 19.7214 24.2092 24.4232 21.7415C24.4232 21.7415 28.3825 20.0599 27.6532 14.43C27.023 9.55562 23.7688 5.34954 19.1728 3.50201C17.56 2.85341 15.6696 2.43411 13.5456 2.54112C9.64579 2.73985 6.01699 4.68565 3.69694 7.79981C1.94974 10.1474 0.460321 13.6525 1.18961 18.4526Z" stroke="#595FEA" stroke-width="2" stroke-miterlimit="10"/>
<path d="M13.0957 17.3563C13.0957 17.3563 8.2441 16.4369 6.60045 20.916C5.78304 23.1435 6.85163 25.6418 8.57239 27.2863C9.12761 27.8169 9.78199 28.2799 10.5245 28.5245C10.5245 28.5245 3.4718 27.153 1.19141 18.4504" stroke="#595FEA" stroke-width="2" stroke-miterlimit="10"/>
<path d="M1.79932 11.3158C1.79932 11.3158 8.23068 5.91518 14.9573 13.6503C14.9573 13.6503 22.5872 22.1957 27.6526 14.454" stroke="#595FEA" stroke-width="2" stroke-miterlimit="10"/>
<path d="M5.1582 6.17289C5.1582 6.17289 12.0258 4.06767 16.7122 9.15602C17.3489 9.84611 18.0782 10.4489 18.878 10.9446C20.7794 12.1195 23.8023 13.1437 26.4044 10.261" stroke="#595FEA" stroke-width="2" stroke-miterlimit="10"/>
<path d="M7.65447 27.3518C7.65447 27.3518 1.19666 19.2497 8.90593 14.133" stroke="#595FEA" stroke-width="2" stroke-miterlimit="10"/>
</svg>
